<?xml version="1.0" encoding="UTF-8"?>
<svg xmlns="http://www.w3.org/2000/svg" xmlns:xlink="http://www.w3.org/1999/xlink" width="30px" height="26px" viewBox="0 0 30 26" version="1.1">
<g id="surface1">
<path style=" stroke:none;fill-rule:nonzero;fill:rgb(64.705884%,0%,11.764706%);fill-opacity:1;" d="M 7.554688 8.605469 L 22.445312 8.605469 L 22.445312 25.601562 L 7.554688 25.601562 Z M 7.554688 8.605469 "/>
<path style=" stroke:none;fill-rule:nonzero;fill:rgb(51.372552%,0%,9.411765%);fill-opacity:1;" d="M 15 8.605469 L 22.445312 8.605469 L 22.445312 25.601562 L 15 25.601562 Z M 15 8.605469 "/>
<path style=" stroke:none;fill-rule:nonzero;fill:rgb(51.372552%,0%,9.411765%);fill-opacity:1;" d="M 16.613281 14.332031 L 13.261719 12.976562 L 14.824219 10.074219 L 18.175781 11.429688 Z M 16.613281 14.332031 "/>
<path style=" stroke:none;fill-rule:nonzero;fill:rgb(51.372552%,0%,9.411765%);fill-opacity:1;" d="M 16.113281 18.183594 L 12.761719 19.539062 L 11.199219 16.632812 L 14.550781 15.28125 Z M 16.113281 18.183594 "/>
<path style=" stroke:none;fill-rule:nonzero;fill:rgb(51.372552%,0%,9.411765%);fill-opacity:1;" d="M 14.539062 20.433594 L 18.234375 20.433594 L 18.234375 23.636719 L 14.539062 23.636719 Z M 14.539062 20.433594 "/>
<path style=" stroke:none;fill-rule:nonzero;fill:rgb(0%,0%,0%);fill-opacity:1;" d="M 8.011719 25.203125 L 8.011719 9.003906 L 21.988281 9.003906 L 21.988281 24.433594 L 22.90625 24.433594 L 22.90625 9.003906 L 24.070312 9.003906 L 24.070312 8.207031 L 22.90625 8.207031 L 22.90625 4.699219 L 11.445312 4.699219 L 11.445312 5.496094 L 21.988281 5.496094 L 21.988281 8.207031 L 8.011719 8.207031 L 8.011719 5.496094 L 9.667969 5.496094 L 9.667969 7.4375 L 10.585938 7.4375 L 10.585938 0 L 7.460938 0 L 7.460938 0.796875 L 9.667969 0.796875 L 9.667969 4.699219 L 7.09375 4.699219 L 7.09375 8.207031 L 6.175781 8.207031 L 6.175781 9.003906 L 7.09375 9.003906 L 7.09375 25.203125 L 5.5625 25.203125 L 5.5625 26 L 24.4375 26 L 24.4375 25.203125 Z M 8.011719 25.203125 "/>
<path style=" stroke:none;fill-rule:nonzero;fill:rgb(78.039217%,0%,14.117648%);fill-opacity:1;" d="M 16.835938 14.863281 L 12.652344 13.171875 L 14.601562 9.546875 L 18.785156 11.234375 Z M 13.871094 12.785156 L 16.390625 13.804688 L 17.5625 11.621094 L 15.046875 10.605469 Z M 13.871094 12.785156 "/>
<path style=" stroke:none;fill-rule:nonzero;fill:rgb(78.039217%,0%,14.117648%);fill-opacity:1;" d="M 12.539062 20.066406 L 10.589844 16.441406 L 14.773438 14.75 L 16.722656 18.375 Z M 11.8125 16.828125 L 12.984375 19.007812 L 15.503906 17.992188 L 14.328125 15.808594 Z M 11.8125 16.828125 "/>
<path style=" stroke:none;fill-rule:nonzero;fill:rgb(78.039217%,0%,14.117648%);fill-opacity:1;" d="M 18.695312 24.035156 L 14.078125 24.035156 L 14.078125 20.035156 L 18.695312 20.035156 Z M 15 23.238281 L 17.777344 23.238281 L 17.777344 20.832031 L 15 20.832031 Z M 15 23.238281 "/>
<path style=" stroke:none;fill-rule:nonzero;fill:rgb(51.372552%,0%,9.411765%);fill-opacity:1;" d="M 9.117188 15.808594 L 10.035156 15.808594 L 10.035156 16.605469 L 9.117188 16.605469 Z M 9.117188 15.808594 "/>
<path style=" stroke:none;fill-rule:nonzero;fill:rgb(51.372552%,0%,9.411765%);fill-opacity:1;" d="M 10.832031 19.308594 L 11.75 19.308594 L 11.75 20.105469 L 10.832031 20.105469 Z M 10.832031 19.308594 "/>
<path style=" stroke:none;fill-rule:nonzero;fill:rgb(64.705884%,0%,11.764706%);fill-opacity:1;" d="M 19.71875 14.0625 L 20.640625 14.0625 L 20.640625 14.859375 L 19.71875 14.859375 Z M 19.71875 14.0625 "/>
<path style=" stroke:none;fill-rule:nonzero;fill:rgb(51.372552%,0%,9.411765%);fill-opacity:1;" d="M 12.671875 10.277344 L 13.589844 10.277344 L 13.589844 11.074219 L 12.671875 11.074219 Z M 12.671875 10.277344 "/>
<path style=" stroke:none;fill-rule:nonzero;fill:rgb(64.705884%,0%,11.764706%);fill-opacity:1;" d="M 15.429688 21.113281 L 16.347656 21.113281 L 16.347656 21.910156 L 15.429688 21.910156 Z M 15.429688 21.113281 "/>
</g>
</svg>
